<?xml version="1.0" encoding="UTF-8" standalone="no"?>
<!-- Created with Inkscape (http://www.inkscape.org/) -->

<svg
   xmlns:dc="http://purl.org/dc/elements/1.1/"
   xmlns:cc="http://creativecommons.org/ns#"
   xmlns:rdf="http://www.w3.org/1999/02/22-rdf-syntax-ns#"
   xmlns:svg="http://www.w3.org/2000/svg"
   xmlns="http://www.w3.org/2000/svg"
   xmlns:xlink="http://www.w3.org/1999/xlink"
   xmlns:sodipodi="http://sodipodi.sourceforge.net/DTD/sodipodi-0.dtd"
   xmlns:inkscape="http://www.inkscape.org/namespaces/inkscape"
   width="24"
   height="24"
   viewBox="0 0 24 24"
   id="svg4247"
   version="1.1"
   inkscape:version="0.91 r13725"
   sodipodi:docname="logo.svg"
   inkscape:export-filename="C:\Users\MALEPLATE\Desktop\FAC\serveur audio\VoKal\O3one.png"
   inkscape:export-xdpi="360"
   inkscape:export-ydpi="360">
  <defs
     id="defs4249">
    <linearGradient
       inkscape:collect="always"
       id="linearGradient3833">
      <stop
         style="stop-color:#69c3c3;stop-opacity:1;"
         offset="0"
         id="stop3835" />
      <stop
         style="stop-color:#2da3a2;stop-opacity:1"
         offset="1"
         id="stop3837" />
    </linearGradient>
    <linearGradient
       inkscape:collect="always"
       xlink:href="#linearGradient3833"
       id="linearGradient3839"
       x1="-40"
       y1="1037.3622"
       x2="-30"
       y2="1037.3622"
       gradientUnits="userSpaceOnUse" />
    <linearGradient
       inkscape:collect="always"
       xlink:href="#linearGradient3833"
       id="linearGradient3902-8"
       x1="22"
       y1="1039.8622"
       x2="11"
       y2="1039.8622"
       gradientUnits="userSpaceOnUse"
       gradientTransform="translate(0,-20)" />
    <linearGradient
       inkscape:collect="always"
       xlink:href="#linearGradient3833"
       id="linearGradient4252"
       x1="23"
       y1="13.151786"
       x2="12"
       y2="13.151786"
       gradientUnits="userSpaceOnUse"
       gradientTransform="translate(-1,1028.3622)" />
    <linearGradient
       inkscape:collect="always"
       xlink:href="#linearGradient3833"
       id="linearGradient4314"
       x1="11"
       y1="11.5"
       x2="17.5"
       y2="11.5"
       gradientUnits="userSpaceOnUse" />
  </defs>
  <sodipodi:namedview
     id="base"
     pagecolor="#ffffff"
     bordercolor="#666666"
     borderopacity="1.0"
     inkscape:pageopacity="0.0"
     inkscape:pageshadow="2"
     inkscape:zoom="11.2"
     inkscape:cx="7.8850681"
     inkscape:cy="18.741814"
     inkscape:document-units="px"
     inkscape:current-layer="layer1"
     showgrid="true"
     units="px"
     inkscape:snap-bbox="true"
     inkscape:bbox-paths="true"
     inkscape:bbox-nodes="true"
     inkscape:snap-bbox-edge-midpoints="true"
     inkscape:snap-bbox-midpoints="true"
     inkscape:window-width="1095"
     inkscape:window-height="733"
     inkscape:window-x="1342"
     inkscape:window-y="102"
     inkscape:window-maximized="0"
     showguides="false"
     inkscape:snap-grids="true"
     inkscape:object-paths="true"
     inkscape:snap-intersection-paths="true"
     inkscape:object-nodes="true"
     inkscape:snap-smooth-nodes="true"
     inkscape:snap-midpoints="true">
    <inkscape:grid
       type="xygrid"
       id="grid4795" />
  </sodipodi:namedview>
  <metadata
     id="metadata4252">
    <rdf:RDF>
      <cc:Work
         rdf:about="">
        <dc:format>image/svg+xml</dc:format>
        <dc:type
           rdf:resource="http://purl.org/dc/dcmitype/StillImage" />
        <dc:title></dc:title>
      </cc:Work>
    </rdf:RDF>
  </metadata>
  <g
     inkscape:label="Calque 1"
     inkscape:groupmode="layer"
     id="layer1"
     transform="translate(0,-1028.3622)">
    <rect
       style="color:#000000;clip-rule:nonzero;display:inline;overflow:visible;visibility:visible;opacity:1;isolation:auto;mix-blend-mode:normal;color-interpolation:sRGB;color-interpolation-filters:linearRGB;solid-color:#000000;solid-opacity:1;fill:url(#linearGradient3839);fill-opacity:1;fill-rule:nonzero;stroke:none;stroke-width:1.5;stroke-linecap:butt;stroke-linejoin:miter;stroke-miterlimit:4;stroke-dasharray:none;stroke-dashoffset:0;stroke-opacity:1;color-rendering:auto;image-rendering:auto;shape-rendering:auto;text-rendering:auto;enable-background:accumulate"
       id="rect3831"
       width="10"
       height="10"
       x="-40"
       y="1032.3622"
       ry="1.21645e-013" />
    <path
       inkscape:connector-curvature="0"
       style="color:#000000;clip-rule:nonzero;display:inline;overflow:visible;visibility:visible;opacity:1;isolation:auto;mix-blend-mode:normal;color-interpolation:sRGB;color-interpolation-filters:linearRGB;solid-color:#000000;solid-opacity:1;fill:#999999;fill-opacity:1;fill-rule:nonzero;stroke:none;stroke-width:1.5;stroke-linecap:butt;stroke-linejoin:miter;stroke-miterlimit:4;stroke-dasharray:none;stroke-dashoffset:0;stroke-opacity:1;color-rendering:auto;image-rendering:auto;shape-rendering:auto;text-rendering:auto;enable-background:accumulate"
       d="m 10,1012.3622 a 7.5,7.5 0 0 0 -7.5,7.5 7.5,7.5 0 0 0 7.5,7.5 l 0,-3 a 4.5,4.5 0 0 1 -4.5,-4.5 4.5,4.5 0 0 1 4.5,-4.5 l 0,-3 z"
       id="path3807-6" />
    <path
       inkscape:connector-curvature="0"
       style="color:#000000;clip-rule:nonzero;display:inline;overflow:visible;visibility:visible;opacity:1;isolation:auto;mix-blend-mode:normal;color-interpolation:sRGB;color-interpolation-filters:linearRGB;solid-color:#000000;solid-opacity:1;fill:url(#linearGradient3902-8);fill-opacity:1;fill-rule:nonzero;stroke:none;stroke-width:1.5;stroke-linecap:butt;stroke-linejoin:miter;stroke-miterlimit:4;stroke-dasharray:none;stroke-dashoffset:0;stroke-opacity:1;color-rendering:auto;image-rendering:auto;shape-rendering:auto;text-rendering:auto;enable-background:accumulate"
       d="m 11,1012.3622 0,15 3,0 0,-15 -3,0 z m 4,0 0,15 3,0 0,-15 -3,0 z m 4,0 0,15 3,0 0,-15 -3,0 z"
       id="rect3843-2" />
    <path
       style="color:#000000;clip-rule:nonzero;display:inline;overflow:visible;visibility:visible;opacity:1;isolation:auto;mix-blend-mode:normal;color-interpolation:sRGB;color-interpolation-filters:linearRGB;solid-color:#000000;solid-opacity:1;fill:#2c9998;fill-opacity:1;fill-rule:nonzero;stroke:none;stroke-width:1.5;stroke-linecap:butt;stroke-linejoin:miter;stroke-miterlimit:4;stroke-dasharray:none;stroke-dashoffset:0;stroke-opacity:1;color-rendering:auto;image-rendering:auto;shape-rendering:auto;text-rendering:auto;enable-background:accumulate"
       d="m 10,4 c -4.1421356,0 -7.5,3.3578644 -7.5,7.5 0,4.142136 3.3578644,7.5 7.5,7.5 0.166903,-0.0029 0.333662,-0.01137 0.5,-0.02539 C 10.1903,18.558349 10,18.051786 10,17.5 L 10,16 C 7.5147186,16 5.5,13.985281 5.5,11.5 5.5,9.0147186 7.5147186,7 10,7 L 10,5.5 C 10,4.9457262 10.191675,4.4348339 10.503906,4.0175781 10.336182,4.0060727 10.168118,4.00021 10,4 Z"
       transform="translate(0,1028.3622)"
       id="path4263"
       inkscape:connector-curvature="0"
       sodipodi:nodetypes="csccscscscc" />
    <path
       style="color:#000000;clip-rule:nonzero;display:inline;overflow:visible;visibility:visible;opacity:1;isolation:auto;mix-blend-mode:normal;color-interpolation:sRGB;color-interpolation-filters:linearRGB;solid-color:#000000;solid-opacity:1;fill:url(#linearGradient4252);fill-opacity:1;fill-rule:nonzero;stroke:none;stroke-width:1.5;stroke-linecap:butt;stroke-linejoin:miter;stroke-miterlimit:4;stroke-dasharray:none;stroke-dashoffset:0;stroke-opacity:1;color-rendering:auto;image-rendering:auto;shape-rendering:auto;text-rendering:auto;enable-background:accumulate"
       d="m 12.5,1032.3622 c -0.831,0 -1.5,0.669 -1.5,1.5 l 0,12 c 0,0.831 0.669,1.5 1.5,1.5 0.831,0 1.5,-0.669 1.5,-1.5 l 0,-12 c 0,-0.831 -0.669,-1.5 -1.5,-1.5 z m 4,0 c -0.831,0 -1.5,0.669 -1.5,1.5 l 0,12 c 0,0.831 0.669,1.5 1.5,1.5 0.831,0 1.5,-0.669 1.5,-1.5 l 0,-12 c 0,-0.831 -0.669,-1.5 -1.5,-1.5 z m 4,0 c -0.831,0 -1.5,0.669 -1.5,1.5 l 0,12 c 0,0.831 0.669,1.5 1.5,1.5 0.831,0 1.5,-0.669 1.5,-1.5 l 0,-12 c 0,-0.831 -0.669,-1.5 -1.5,-1.5 z"
       id="rect4222"
       inkscape:connector-curvature="0" />
    <path
       style="color:#000000;clip-rule:nonzero;display:inline;overflow:visible;visibility:visible;opacity:1;isolation:auto;mix-blend-mode:normal;color-interpolation:sRGB;color-interpolation-filters:linearRGB;solid-color:#000000;solid-opacity:1;fill:url(#linearGradient4314);fill-opacity:1.0;fill-rule:nonzero;stroke:none;stroke-width:1.5;stroke-linecap:butt;stroke-linejoin:miter;stroke-miterlimit:4;stroke-dasharray:none;stroke-dashoffset:0;stroke-opacity:1;color-rendering:auto;image-rendering:auto;shape-rendering:auto;text-rendering:auto;enable-background:accumulate"
       d="M 11.738281 4.2128906 C 11.297568 4.4735869 11 4.9488009 11 5.5 L 11 7.1171875 A 4.5 4.5 0 0 1 14 9.4414062 L 14 5.5 C 14 5.370816 13.977696 5.2483555 13.947266 5.1289062 A 7.5 7.5 0 0 0 11.738281 4.2128906 z M 15 5.921875 L 15 17.080078 A 7.5 7.5 0 0 0 17.5 11.5 A 7.5 7.5 0 0 0 15 5.921875 z M 14 13.552734 A 4.5 4.5 0 0 1 11 15.880859 L 11 17.5 C 11 18.051199 11.297568 18.526413 11.738281 18.787109 A 7.5 7.5 0 0 0 13.949219 17.865234 C 13.978661 17.747609 14 17.627003 14 17.5 L 14 13.552734 z "
       transform="translate(0,1028.3622)"
       id="path4263-5" />
  </g>
</svg>
